<?xml version="1.0" standalone="no"?><!DOCTYPE svg PUBLIC "-//W3C//DTD SVG 1.1//EN" "http://www.w3.org/Graphics/SVG/1.1/DTD/svg11.dtd"><svg t="1602816448967" class="icon" viewBox="0 0 1024 1024" version="1.1" xmlns="http://www.w3.org/2000/svg" p-id="1538" xmlns:xlink="http://www.w3.org/1999/xlink" width="200" height="200"><defs><style type="text/css"></style></defs><path d="M416 64c-17.728 0-32 14.272-32 32v49.984a352.64 352.64 0 0 0-72 30.016l-35.52-35.52a32.768 32.768 0 0 0-45.44 0L140.416 231.04a32.768 32.768 0 0 0 0 45.504l36.032 35.52c-12.8 22.72-22.784 46.72-30.016 72H96c-17.728 0-32 14.272-32 32v128c0 17.728 14.272 32 32 32h49.984c7.488 25.472 17.536 49.472 30.016 72l-35.52 35.776a32.448 32.448 0 0 0 0 45.248L231.04 819.2a32.32 32.32 0 0 0 45.504 0l35.52-35.52A352.64 352.64 0 0 0 384 813.76v50.24c0 17.728 14.272 32 32 32h128a32.192 32.192 0 0 0 32-32v-49.984a352.576 352.576 0 0 0 72-30.016l35.776 35.2a32 32 0 0 0 45.248 0l90.24-90.24a32 32 0 0 0 0-45.184l-35.776-35.776A353.28 353.28 0 0 0 813.76 576h50.24c17.728 0 32-14.272 32-32v-128c0-17.728-14.272-32-32-32h-50.56a350.72 350.72 0 0 0-29.44-72.256l35.2-35.2a32.32 32.32 0 0 0 0-45.568l-90.24-90.496a32.128 32.128 0 0 0-45.184 0l-35.52 35.52c-22.528-12.8-46.72-22.72-72.256-30.272V96c0-17.728-14.272-32-32-32zM448 128h64v38.528c0 15.232 10.752 28.224 25.472 31.488a277.76 277.76 0 0 1 101.056 41.984c12.736 8.256 29.696 6.528 40.448-4.224l27.264-27.264 45.248 45.248-27.52 27.264a32.832 32.832 0 0 0-3.968 40.448c20.032 29.76 33.728 64 41.28 101.056 3.2 14.72 16.192 25.472 31.488 25.472H832v64h-39.04a31.872 31.872 0 0 0-31.232 25.728 287.424 287.424 0 0 1-42.24 100.288c-8.512 12.736-6.72 29.44 4.032 40.256l27.968 27.968-45.248 45.248-27.968-27.712a31.744 31.744 0 0 0-40.32-4.032c-30.464 20.032-64 35.008-100.48 42.24a32.128 32.128 0 0 0-25.472 31.488V832H448v-39.04a31.872 31.872 0 0 0-25.728-31.232 287.424 287.424 0 0 1-100.288-42.24 32.192 32.192 0 0 0-40.512 4.288l-27.712 27.712-45.248-45.248 27.712-27.712a32.192 32.192 0 0 0 4.288-40.32 283.072 283.072 0 0 1-42.496-100.736A32.384 32.384 0 0 0 166.528 512H128V448h39.04a32.384 32.384 0 0 0 31.488-25.472c7.232-36.48 21.952-70.272 41.984-100.48a32.448 32.448 0 0 0-4.032-40.576l-27.968-27.712 45.248-45.248 27.712 27.712c10.752 10.752 27.52 12.544 40.32 4.288a283.072 283.072 0 0 1 100.736-42.496A32.384 32.384 0 0 0 448 166.528z m37.504 192A160.896 160.896 0 0 0 320 474.496 160.896 160.896 0 0 0 474.496 640 160.896 160.896 0 0 0 640 485.504 160.896 160.896 0 0 0 485.504 320z m-1.984 64A95.616 95.616 0 0 1 576 483.52 95.616 95.616 0 0 1 476.48 576 95.616 95.616 0 0 1 384 476.48 95.616 95.616 0 0 1 483.52 384z" fill="" p-id="1539"></path></svg>